<svg xmlns="http://www.w3.org/2000/svg" xmlns:xlink="http://www.w3.org/1999/xlink">
  <defs>
    <symbol viewBox="0 0 60 60" id="elephant">
        <path xmlns="http://www.w3.org/2000/svg" d="M27.7057 11.5304C12.8649 11.3809 3.55688 17.0113 2.85516 21.366C2.5063 26.1918 2.36708 31.1661 2.38454 35.9695L2.88962 36.4144C3.35403 34.6196 3.64782 32.6828 4.54454 31.2482C4.69688 34.4333 5.13844 38.1109 5.87684 40.8654C5.58657 43.7937 5.62864 46.4892 5.47419 49.4175C7.95364 50.9088 12.5623 50.6655 13.3891 49.6502C13.7332 47.225 13.9729 44.6604 13.8547 41.6188L14.7444 37.4756C15.4965 35.7662 17.7081 35.455 17.4873 33.7492L19.5765 33.4601C19.6181 36.4127 17.892 36.6359 16.6805 38.3413C18.2032 38.9691 18.4003 38.7967 19.4999 38.9418C22.2946 39.2631 24.8008 39.384 27.4454 37.9837L27.082 35.9282L29.159 35.5608L29.518 37.5914C30.0125 39.2434 30.9238 49.8248 31.6929 50.29C33.2645 51.042 38.0003 51.042 38.1935 49.6675C38.3865 44.3019 38.646 39.1089 37.5994 34.0532C38.0332 33.5727 38.4595 33.1025 38.88 32.6357C36.5154 31.4454 33.6987 29.6078 32.1277 27.7376C31.0686 25.7208 30.5163 23.2038 30.0999 21.1451C29.8015 19.6283 29.5959 18.0895 29.6534 16.7522C29.682 16.0835 29.7709 15.461 30.0028 14.8845C32.3288 12.5189 36.6363 10.7032 39.3286 9.43488C35.4294 8.58305 30.9438 10.3004 27.7057 11.5304ZM42.8152 10.3666C39.328 11.653 34.3525 12.9652 31.9597 15.6714C31.8652 15.9067 31.7828 16.3233 31.7605 16.8425C31.716 17.8812 31.8891 19.3144 32.1692 20.7382C32.4492 22.162 32.8306 23.5882 33.1688 24.6806C33.3377 25.227 33.4965 25.6912 33.6217 26.0212C35.4048 28.6246 38.9708 30.6648 41.5865 31.2899L43.2851 27.9251C41.9288 26.1626 41.6704 23.797 42.7472 22.0245C43.3252 21.3046 43.8871 20.7878 44.7373 20.8038C45.2699 20.8166 45.8147 21.0377 46.2438 21.395C49.2796 23.923 52.0424 27.1009 56.0138 29.6755C55.9978 28.899 55.9833 28.1591 55.9853 27.477C55.9883 26.4187 53.7676 16.0208 50.054 11.1231C47.3683 10.4399 45.3263 10.052 42.8152 10.3666ZM50.8874 19.3001C51.3945 19.2919 51.8742 19.3661 52.2769 19.5718C52.284 20.1486 52.242 20.7478 51.0011 21.4646C50.4736 20.9115 49.684 20.1946 48.9025 19.6334C49.5384 19.4569 50.2354 19.3106 50.8874 19.3001ZM44.532 23.1483C44.2668 23.5693 44.0735 24.5143 44.2152 25.2027C44.3795 26.001 45.2772 27.1833 46.7406 28.3046C48.2043 29.4258 50.1674 30.5043 52.2195 31.3617C54.0486 32.126 55.9399 32.7018 57.6169 33.0246C51.7833 30.0811 48.3026 25.8539 44.8943 23.0157C44.7129 22.8288 44.6146 23.0197 44.532 23.1483ZM51.4359 33.3198C51.4976 36.0652 51.1528 39.2102 49.4337 40.3386C48.1296 41.1948 45.539 40.4957 44.9325 39.0584C44.504 38.0427 46.7568 37.2212 46.5038 36.1484C46.3024 35.2944 45.2108 34.4639 44.3504 34.6352C42.255 35.0522 40.26 38.0145 40.9168 40.0475C42.1051 43.7257 48.2032 46.0364 51.6834 44.3542C54.9049 42.797 55.7918 38.8799 55.9969 34.8397C54.5081 34.4729 52.952 33.9516 51.4359 33.3198ZM27.9186 39.4745C27.5356 39.6604 27.1449 39.8301 26.7476 39.9831L25.7316 49.0772C25.8745 50.1087 27.5854 50.5593 29.2923 50.5784L27.9186 39.4745ZM16.1237 40.0041C15.9666 41.2618 15.8463 42.557 15.7636 43.6314C15.5825 46.0015 15.4726 48.5019 15.4711 49.6653C17.6823 51.063 21.8927 50.1966 21.6943 49.4304C21.6175 46.2337 20.991 43.5937 20.2201 40.7917C18.8159 40.6443 17.4634 40.3389 16.1236 40.0041H16.1237Z" fill="currentColor"/>
    </symbol>
    <symbol viewBox="0 0 50 50" id="trees">
        <path d="M33.3333 25L18.75 4.16669L4.16667 25H8.04167L0 37.5H14.5833V45.8334H22.9167V37.5H37.5L29.4583 25H33.3333Z" fill="currentColor"/>
        <path d="M41.9583 25H45.8333L31.25 4.16669L26.2708 11.2709L37.3333 27.0834H33.2708L39.9792 37.5H50L41.9583 25ZM27.0833 39.5834H35.4167V45.8334H27.0833V39.5834Z" fill="currentColor"/>
    </symbol>
    <symbol id="restore" viewBox="0 0 24 24"  xmlns="http://www.w3.org/2000/svg">
        <path d="M12 21C9.9 21 8.04167 20.3627 6.425 19.088C4.80833 17.8133 3.75833 16.184 3.275 14.2C3.20833 13.95 3.25833 13.721 3.425 13.513C3.59167 13.305 3.81667 13.184 4.1 13.15C4.36667 13.1167 4.60833 13.1667 4.825 13.3C5.04167 13.4333 5.19167 13.6333 5.275 13.9C5.675 15.4 6.5 16.625 7.75 17.575C9 18.525 10.4167 19 12 19C13.95 19 15.6043 18.321 16.963 16.963C18.3217 15.605 19.0007 13.9507 19 12C19 10.05 18.321 8.396 16.963 7.038C15.605 5.68 13.9507 5.00067 12 5C10.85 5 9.775 5.26667 8.775 5.8C7.775 6.33333 6.93333 7.06667 6.25 8H8C8.28333 8 8.521 8.096 8.713 8.288C8.905 8.48 9.00067 8.71733 9 9C9 9.28333 8.904 9.521 8.712 9.713C8.52 9.905 8.28267 10.0007 8 10H4C3.71667 10 3.47933 9.904 3.288 9.712C3.09667 9.52 3.00067 9.28267 3 9V5C3 4.71667 3.096 4.47933 3.288 4.288C3.48 4.09667 3.71733 4.00067 4 4C4.28333 4 4.521 4.096 4.713 4.288C4.905 4.48 5.00067 4.71733 5 5V6.35C5.85 5.28333 6.88767 4.45833 8.113 3.875C9.33833 3.29167 10.634 3 12 3C13.25 3 14.421 3.23767 15.513 3.713C16.605 4.18833 17.555 4.82967 18.363 5.637C19.171 6.44567 19.8127 7.39567 20.288 8.487C20.7633 9.57833 21.0007 10.7493 21 12C21 13.25 20.7627 14.421 20.288 15.513C19.8133 16.605 19.1717 17.555 18.363 18.363C17.5543 19.171 16.6043 19.8127 15.513 20.288C14.4217 20.7633 13.2507 21.0007 12 21ZM12 14C11.45 14 10.9793 13.8043 10.588 13.413C10.1967 13.0217 10.0007 12.5507 10 12C10 11.45 10.196 10.9793 10.588 10.588C10.98 10.1967 11.4507 10.0007 12 10C12.55 10 13.021 10.196 13.413 10.588C13.805 10.98 14.0007 11.4507 14 12C14 12.55 13.8043 13.021 13.413 13.413C13.0217 13.805 12.5507 14.0007 12 14Z" fill="currentColor"/>
    </symbol>
    <symbol id="plants" viewBox="0 0 24 24"  xmlns="http://www.w3.org/2000/svg">
      <path d="M3 13C3 15.3869 3.94821 17.6761 5.63604 19.364C7.32387 21.0518 9.61305 22 12 22C12 17 7.97 13 3 13ZM12 5.5C12.663 5.5 13.2989 5.76339 13.7678 6.23223C14.2366 6.70107 14.5 7.33696 14.5 8C14.5 8.66304 14.2366 9.29893 13.7678 9.76777C13.2989 10.2366 12.663 10.5 12 10.5C11.337 10.5 10.7011 10.2366 10.2322 9.76777C9.76339 9.29893 9.5 8.66304 9.5 8C9.5 7.33696 9.76339 6.70107 10.2322 6.23223C10.7011 5.76339 11.337 5.5 12 5.5ZM5.6 10.25C5.6 10.913 5.86339 11.5489 6.33223 12.0178C6.80107 12.4866 7.43696 12.75 8.1 12.75C8.63 12.75 9.12 12.58 9.5 12.31V12.5C9.5 13.163 9.76339 13.7989 10.2322 14.2678C10.7011 14.7366 11.337 15 12 15C12.663 15 13.2989 14.7366 13.7678 14.2678C14.2366 13.7989 14.5 13.163 14.5 12.5V12.31C14.88 12.58 15.37 12.75 15.9 12.75C16.563 12.75 17.1989 12.4866 17.6678 12.0178C18.1366 11.5489 18.4 10.913 18.4 10.25C18.4 9.25 17.81 8.4 16.97 8C17.81 7.6 18.4 6.74 18.4 5.75C18.4 5.08696 18.1366 4.45107 17.6678 3.98223C17.1989 3.51339 16.563 3.25 15.9 3.25C15.37 3.25 14.88 3.41 14.5 3.69V3.5C14.5 2.83696 14.2366 2.20107 13.7678 1.73223C13.2989 1.26339 12.663 1 12 1C11.337 1 10.7011 1.26339 10.2322 1.73223C9.76339 2.20107 9.5 2.83696 9.5 3.5V3.69C9.12 3.41 8.63 3.25 8.1 3.25C7.43696 3.25 6.80107 3.51339 6.33223 3.98223C5.86339 4.45107 5.6 5.08696 5.6 5.75C5.6 6.74 6.19 7.6 7.03 8C6.19 8.4 5.6 9.25 5.6 10.25ZM12 22C14.3869 22 16.6761 21.0518 18.364 19.364C20.0518 17.6761 21 15.3869 21 13C16 13 12 17 12 22Z" fill="currentColor"/>
    </symbol>
      
  </defs>
</svg>