<svg xmlns="http://www.w3.org/2000/svg" xmlns:xlink="http://www.w3.org/1999/xlink">
  <defs>
    <symbol viewBox="0 0 60 60" id="elephant">
        <path xmlns="http://www.w3.org/2000/svg" d="M27.7057 11.5304C12.8649 11.3809 3.55688 17.0113 2.85516 21.366C2.5063 26.1918 2.36708 31.1661 2.38454 35.9695L2.88962 36.4144C3.35403 34.6196 3.64782 32.6828 4.54454 31.2482C4.69688 34.4333 5.13844 38.1109 5.87684 40.8654C5.58657 43.7937 5.62864 46.4892 5.47419 49.4175C7.95364 50.9088 12.5623 50.6655 13.3891 49.6502C13.7332 47.225 13.9729 44.6604 13.8547 41.6188L14.7444 37.4756C15.4965 35.7662 17.7081 35.455 17.4873 33.7492L19.5765 33.4601C19.6181 36.4127 17.892 36.6359 16.6805 38.3413C18.2032 38.9691 18.4003 38.7967 19.4999 38.9418C22.2946 39.2631 24.8008 39.384 27.4454 37.9837L27.082 35.9282L29.159 35.5608L29.518 37.5914C30.0125 39.2434 30.9238 49.8248 31.6929 50.29C33.2645 51.042 38.0003 51.042 38.1935 49.6675C38.3865 44.3019 38.646 39.1089 37.5994 34.0532C38.0332 33.5727 38.4595 33.1025 38.88 32.6357C36.5154 31.4454 33.6987 29.6078 32.1277 27.7376C31.0686 25.7208 30.5163 23.2038 30.0999 21.1451C29.8015 19.6283 29.5959 18.0895 29.6534 16.7522C29.682 16.0835 29.7709 15.461 30.0028 14.8845C32.3288 12.5189 36.6363 10.7032 39.3286 9.43488C35.4294 8.58305 30.9438 10.3004 27.7057 11.5304ZM42.8152 10.3666C39.328 11.653 34.3525 12.9652 31.9597 15.6714C31.8652 15.9067 31.7828 16.3233 31.7605 16.8425C31.716 17.8812 31.8891 19.3144 32.1692 20.7382C32.4492 22.162 32.8306 23.5882 33.1688 24.6806C33.3377 25.227 33.4965 25.6912 33.6217 26.0212C35.4048 28.6246 38.9708 30.6648 41.5865 31.2899L43.2851 27.9251C41.9288 26.1626 41.6704 23.797 42.7472 22.0245C43.3252 21.3046 43.8871 20.7878 44.7373 20.8038C45.2699 20.8166 45.8147 21.0377 46.2438 21.395C49.2796 23.923 52.0424 27.1009 56.0138 29.6755C55.9978 28.899 55.9833 28.1591 55.9853 27.477C55.9883 26.4187 53.7676 16.0208 50.054 11.1231C47.3683 10.4399 45.3263 10.052 42.8152 10.3666ZM50.8874 19.3001C51.3945 19.2919 51.8742 19.3661 52.2769 19.5718C52.284 20.1486 52.242 20.7478 51.0011 21.4646C50.4736 20.9115 49.684 20.1946 48.9025 19.6334C49.5384 19.4569 50.2354 19.3106 50.8874 19.3001ZM44.532 23.1483C44.2668 23.5693 44.0735 24.5143 44.2152 25.2027C44.3795 26.001 45.2772 27.1833 46.7406 28.3046C48.2043 29.4258 50.1674 30.5043 52.2195 31.3617C54.0486 32.126 55.9399 32.7018 57.6169 33.0246C51.7833 30.0811 48.3026 25.8539 44.8943 23.0157C44.7129 22.8288 44.6146 23.0197 44.532 23.1483ZM51.4359 33.3198C51.4976 36.0652 51.1528 39.2102 49.4337 40.3386C48.1296 41.1948 45.539 40.4957 44.9325 39.0584C44.504 38.0427 46.7568 37.2212 46.5038 36.1484C46.3024 35.2944 45.2108 34.4639 44.3504 34.6352C42.255 35.0522 40.26 38.0145 40.9168 40.0475C42.1051 43.7257 48.2032 46.0364 51.6834 44.3542C54.9049 42.797 55.7918 38.8799 55.9969 34.8397C54.5081 34.4729 52.952 33.9516 51.4359 33.3198ZM27.9186 39.4745C27.5356 39.6604 27.1449 39.8301 26.7476 39.9831L25.7316 49.0772C25.8745 50.1087 27.5854 50.5593 29.2923 50.5784L27.9186 39.4745ZM16.1237 40.0041C15.9666 41.2618 15.8463 42.557 15.7636 43.6314C15.5825 46.0015 15.4726 48.5019 15.4711 49.6653C17.6823 51.063 21.8927 50.1966 21.6943 49.4304C21.6175 46.2337 20.991 43.5937 20.2201 40.7917C18.8159 40.6443 17.4634 40.3389 16.1236 40.0041H16.1237Z"/>
    </symbol>
    <symbol viewBox="0 0 50 50">
        <path d="M33.3333 25L18.75 4.16669L4.16667 25H8.04167L0 37.5H14.5833V45.8334H22.9167V37.5H37.5L29.4583 25H33.3333Z"/>
        <path d="M41.9583 25H45.8333L31.25 4.16669L26.2708 11.2709L37.3333 27.0834H33.2708L39.9792 37.5H50L41.9583 25ZM27.0833 39.5834H35.4167V45.8334H27.0833V39.5834Z"/>
</svg>
  </defs>
</svg>