<svg xmlns="http://www.w3.org/2000/svg" xmlns:xlink="http://www.w3.org/1999/xlink">
  <defs>
    <symbol viewBox="0 0 60 60" id="elephant">
      <path xmlns="http://www.w3.org/2000/svg"
        d="M27.7057 11.5304C12.8649 11.3809 3.55688 17.0113 2.85516 21.366C2.5063 26.1918 2.36708 31.1661 2.38454 35.9695L2.88962 36.4144C3.35403 34.6196 3.64782 32.6828 4.54454 31.2482C4.69688 34.4333 5.13844 38.1109 5.87684 40.8654C5.58657 43.7937 5.62864 46.4892 5.47419 49.4175C7.95364 50.9088 12.5623 50.6655 13.3891 49.6502C13.7332 47.225 13.9729 44.6604 13.8547 41.6188L14.7444 37.4756C15.4965 35.7662 17.7081 35.455 17.4873 33.7492L19.5765 33.4601C19.6181 36.4127 17.892 36.6359 16.6805 38.3413C18.2032 38.9691 18.4003 38.7967 19.4999 38.9418C22.2946 39.2631 24.8008 39.384 27.4454 37.9837L27.082 35.9282L29.159 35.5608L29.518 37.5914C30.0125 39.2434 30.9238 49.8248 31.6929 50.29C33.2645 51.042 38.0003 51.042 38.1935 49.6675C38.3865 44.3019 38.646 39.1089 37.5994 34.0532C38.0332 33.5727 38.4595 33.1025 38.88 32.6357C36.5154 31.4454 33.6987 29.6078 32.1277 27.7376C31.0686 25.7208 30.5163 23.2038 30.0999 21.1451C29.8015 19.6283 29.5959 18.0895 29.6534 16.7522C29.682 16.0835 29.7709 15.461 30.0028 14.8845C32.3288 12.5189 36.6363 10.7032 39.3286 9.43488C35.4294 8.58305 30.9438 10.3004 27.7057 11.5304ZM42.8152 10.3666C39.328 11.653 34.3525 12.9652 31.9597 15.6714C31.8652 15.9067 31.7828 16.3233 31.7605 16.8425C31.716 17.8812 31.8891 19.3144 32.1692 20.7382C32.4492 22.162 32.8306 23.5882 33.1688 24.6806C33.3377 25.227 33.4965 25.6912 33.6217 26.0212C35.4048 28.6246 38.9708 30.6648 41.5865 31.2899L43.2851 27.9251C41.9288 26.1626 41.6704 23.797 42.7472 22.0245C43.3252 21.3046 43.8871 20.7878 44.7373 20.8038C45.2699 20.8166 45.8147 21.0377 46.2438 21.395C49.2796 23.923 52.0424 27.1009 56.0138 29.6755C55.9978 28.899 55.9833 28.1591 55.9853 27.477C55.9883 26.4187 53.7676 16.0208 50.054 11.1231C47.3683 10.4399 45.3263 10.052 42.8152 10.3666ZM50.8874 19.3001C51.3945 19.2919 51.8742 19.3661 52.2769 19.5718C52.284 20.1486 52.242 20.7478 51.0011 21.4646C50.4736 20.9115 49.684 20.1946 48.9025 19.6334C49.5384 19.4569 50.2354 19.3106 50.8874 19.3001ZM44.532 23.1483C44.2668 23.5693 44.0735 24.5143 44.2152 25.2027C44.3795 26.001 45.2772 27.1833 46.7406 28.3046C48.2043 29.4258 50.1674 30.5043 52.2195 31.3617C54.0486 32.126 55.9399 32.7018 57.6169 33.0246C51.7833 30.0811 48.3026 25.8539 44.8943 23.0157C44.7129 22.8288 44.6146 23.0197 44.532 23.1483ZM51.4359 33.3198C51.4976 36.0652 51.1528 39.2102 49.4337 40.3386C48.1296 41.1948 45.539 40.4957 44.9325 39.0584C44.504 38.0427 46.7568 37.2212 46.5038 36.1484C46.3024 35.2944 45.2108 34.4639 44.3504 34.6352C42.255 35.0522 40.26 38.0145 40.9168 40.0475C42.1051 43.7257 48.2032 46.0364 51.6834 44.3542C54.9049 42.797 55.7918 38.8799 55.9969 34.8397C54.5081 34.4729 52.952 33.9516 51.4359 33.3198ZM27.9186 39.4745C27.5356 39.6604 27.1449 39.8301 26.7476 39.9831L25.7316 49.0772C25.8745 50.1087 27.5854 50.5593 29.2923 50.5784L27.9186 39.4745ZM16.1237 40.0041C15.9666 41.2618 15.8463 42.557 15.7636 43.6314C15.5825 46.0015 15.4726 48.5019 15.4711 49.6653C17.6823 51.063 21.8927 50.1966 21.6943 49.4304C21.6175 46.2337 20.991 43.5937 20.2201 40.7917C18.8159 40.6443 17.4634 40.3389 16.1236 40.0041H16.1237Z"
        fill="currentColor" />
    </symbol>
    <symbol viewBox="0 0 50 50" id="trees">
      <path
        d="M33.3333 25L18.75 4.16669L4.16667 25H8.04167L0 37.5H14.5833V45.8334H22.9167V37.5H37.5L29.4583 25H33.3333Z"
        fill="currentColor" />
      <path
        d="M41.9583 25H45.8333L31.25 4.16669L26.2708 11.2709L37.3333 27.0834H33.2708L39.9792 37.5H50L41.9583 25ZM27.0833 39.5834H35.4167V45.8334H27.0833V39.5834Z"
        fill="currentColor" />
    </symbol>
    <symbol id="restore" viewBox="0 0 24 24" xmlns="http://www.w3.org/2000/svg">
      <path
        d="M12 21C9.9 21 8.04167 20.3627 6.425 19.088C4.80833 17.8133 3.75833 16.184 3.275 14.2C3.20833 13.95 3.25833 13.721 3.425 13.513C3.59167 13.305 3.81667 13.184 4.1 13.15C4.36667 13.1167 4.60833 13.1667 4.825 13.3C5.04167 13.4333 5.19167 13.6333 5.275 13.9C5.675 15.4 6.5 16.625 7.75 17.575C9 18.525 10.4167 19 12 19C13.95 19 15.6043 18.321 16.963 16.963C18.3217 15.605 19.0007 13.9507 19 12C19 10.05 18.321 8.396 16.963 7.038C15.605 5.68 13.9507 5.00067 12 5C10.85 5 9.775 5.26667 8.775 5.8C7.775 6.33333 6.93333 7.06667 6.25 8H8C8.28333 8 8.521 8.096 8.713 8.288C8.905 8.48 9.00067 8.71733 9 9C9 9.28333 8.904 9.521 8.712 9.713C8.52 9.905 8.28267 10.0007 8 10H4C3.71667 10 3.47933 9.904 3.288 9.712C3.09667 9.52 3.00067 9.28267 3 9V5C3 4.71667 3.096 4.47933 3.288 4.288C3.48 4.09667 3.71733 4.00067 4 4C4.28333 4 4.521 4.096 4.713 4.288C4.905 4.48 5.00067 4.71733 5 5V6.35C5.85 5.28333 6.88767 4.45833 8.113 3.875C9.33833 3.29167 10.634 3 12 3C13.25 3 14.421 3.23767 15.513 3.713C16.605 4.18833 17.555 4.82967 18.363 5.637C19.171 6.44567 19.8127 7.39567 20.288 8.487C20.7633 9.57833 21.0007 10.7493 21 12C21 13.25 20.7627 14.421 20.288 15.513C19.8133 16.605 19.1717 17.555 18.363 18.363C17.5543 19.171 16.6043 19.8127 15.513 20.288C14.4217 20.7633 13.2507 21.0007 12 21ZM12 14C11.45 14 10.9793 13.8043 10.588 13.413C10.1967 13.0217 10.0007 12.5507 10 12C10 11.45 10.196 10.9793 10.588 10.588C10.98 10.1967 11.4507 10.0007 12 10C12.55 10 13.021 10.196 13.413 10.588C13.805 10.98 14.0007 11.4507 14 12C14 12.55 13.8043 13.021 13.413 13.413C13.0217 13.805 12.5507 14.0007 12 14Z"
        fill="currentColor" />
    </symbol>
    <symbol id="plants" viewBox="0 0 24 24" xmlns="http://www.w3.org/2000/svg">
      <path
        d="M3 13C3 15.3869 3.94821 17.6761 5.63604 19.364C7.32387 21.0518 9.61305 22 12 22C12 17 7.97 13 3 13ZM12 5.5C12.663 5.5 13.2989 5.76339 13.7678 6.23223C14.2366 6.70107 14.5 7.33696 14.5 8C14.5 8.66304 14.2366 9.29893 13.7678 9.76777C13.2989 10.2366 12.663 10.5 12 10.5C11.337 10.5 10.7011 10.2366 10.2322 9.76777C9.76339 9.29893 9.5 8.66304 9.5 8C9.5 7.33696 9.76339 6.70107 10.2322 6.23223C10.7011 5.76339 11.337 5.5 12 5.5ZM5.6 10.25C5.6 10.913 5.86339 11.5489 6.33223 12.0178C6.80107 12.4866 7.43696 12.75 8.1 12.75C8.63 12.75 9.12 12.58 9.5 12.31V12.5C9.5 13.163 9.76339 13.7989 10.2322 14.2678C10.7011 14.7366 11.337 15 12 15C12.663 15 13.2989 14.7366 13.7678 14.2678C14.2366 13.7989 14.5 13.163 14.5 12.5V12.31C14.88 12.58 15.37 12.75 15.9 12.75C16.563 12.75 17.1989 12.4866 17.6678 12.0178C18.1366 11.5489 18.4 10.913 18.4 10.25C18.4 9.25 17.81 8.4 16.97 8C17.81 7.6 18.4 6.74 18.4 5.75C18.4 5.08696 18.1366 4.45107 17.6678 3.98223C17.1989 3.51339 16.563 3.25 15.9 3.25C15.37 3.25 14.88 3.41 14.5 3.69V3.5C14.5 2.83696 14.2366 2.20107 13.7678 1.73223C13.2989 1.26339 12.663 1 12 1C11.337 1 10.7011 1.26339 10.2322 1.73223C9.76339 2.20107 9.5 2.83696 9.5 3.5V3.69C9.12 3.41 8.63 3.25 8.1 3.25C7.43696 3.25 6.80107 3.51339 6.33223 3.98223C5.86339 4.45107 5.6 5.08696 5.6 5.75C5.6 6.74 6.19 7.6 7.03 8C6.19 8.4 5.6 9.25 5.6 10.25ZM12 22C14.3869 22 16.6761 21.0518 18.364 19.364C20.0518 17.6761 21 15.3869 21 13C16 13 12 17 12 22Z"
        fill="currentColor" />
    </symbol>
    <symbol id="facebook"  viewBox="0 0 24 24" 
      xmlns="http://www.w3.org/2000/svg">
      <path
        d="M22 12C22 6.48 17.52 2 12 2C6.48 2 2 6.48 2 12C2 16.84 5.44 20.87 10 21.8V15H8V12H10V9.5C10 7.57 11.57 6 13.5 6H16V9H14C13.45 9 13 9.45 13 10V12H16V15H13V21.95C18.05 21.45 22 17.19 22 12Z"
        fill="currentColor" />
    </symbol>
    <symbol id="x"  viewBox="0 0 24 24"  xmlns="http://www.w3.org/2000/svg">
      <path
        d="M18.901 1.15302H22.581L14.541 10.343L24 22.846H16.594L10.794 15.262L4.156 22.846H0.474L9.074 13.016L0 1.15402H7.594L12.837 8.08602L18.901 1.15302ZM17.61 20.644H19.649L6.486 3.24002H4.298L17.61 20.644Z"
        fill="currentColor" />
    </symbol>
    <symbol id="linkedin"  viewBox="0 0 24 24"  xmlns="http://www.w3.org/2000/svg">
      <path d="M19 3C19.5304 3 20.0391 3.21071 20.4142 3.58579C20.7893 3.96086 21 4.46957 21 5V19C21 19.5304 20.7893 20.0391 20.4142 20.4142C20.0391 20.7893 19.5304 21 19 21H5C4.46957 21 3.96086 20.7893 3.58579 20.4142C3.21071 20.0391 3 19.5304 3 19V5C3 4.46957 3.21071 3.96086 3.58579 3.58579C3.96086 3.21071 4.46957 3 5 3H19ZM18.5 18.5V13.2C18.5 12.3354 18.1565 11.5062 17.5452 10.8948C16.9338 10.2835 16.1046 9.94 15.24 9.94C14.39 9.94 13.4 10.46 12.92 11.24V10.13H10.13V18.5H12.92V13.57C12.92 12.8 13.54 12.17 14.31 12.17C14.6813 12.17 15.0374 12.3175 15.2999 12.5801C15.5625 12.8426 15.71 13.1987 15.71 13.57V18.5H18.5ZM6.88 8.56C7.32556 8.56 7.75288 8.383 8.06794 8.06794C8.383 7.75288 8.56 7.32556 8.56 6.88C8.56 5.95 7.81 5.19 6.88 5.19C6.43178 5.19 6.00193 5.36805 5.68499 5.68499C5.36805 6.00193 5.19 6.43178 5.19 6.88C5.19 7.81 5.95 8.56 6.88 8.56ZM8.27 18.5V10.13H5.5V18.5H8.27Z" fill="currentColor"/>
    </symbol>
    <symbol id="instagram"  viewBox="0 0 24 24"  xmlns="http://www.w3.org/2000/svg">
      <path d="M7.8 2H16.2C19.4 2 22 4.6 22 7.8V16.2C22 17.7383 21.3889 19.2135 20.3012 20.3012C19.2135 21.3889 17.7383 22 16.2 22H7.8C4.6 22 2 19.4 2 16.2V7.8C2 6.26174 2.61107 4.78649 3.69878 3.69878C4.78649 2.61107 6.26174 2 7.8 2ZM7.6 4C6.64522 4 5.72955 4.37928 5.05442 5.05442C4.37928 5.72955 4 6.64522 4 7.6V16.4C4 18.39 5.61 20 7.6 20H16.4C17.3548 20 18.2705 19.6207 18.9456 18.9456C19.6207 18.2705 20 17.3548 20 16.4V7.6C20 5.61 18.39 4 16.4 4H7.6ZM17.25 5.5C17.5815 5.5 17.8995 5.6317 18.1339 5.86612C18.3683 6.10054 18.5 6.41848 18.5 6.75C18.5 7.08152 18.3683 7.39946 18.1339 7.63388C17.8995 7.8683 17.5815 8 17.25 8C16.9185 8 16.6005 7.8683 16.3661 7.63388C16.1317 7.39946 16 7.08152 16 6.75C16 6.41848 16.1317 6.10054 16.3661 5.86612C16.6005 5.6317 16.9185 5.5 17.25 5.5ZM12 7C13.3261 7 14.5979 7.52678 15.5355 8.46447C16.4732 9.40215 17 10.6739 17 12C17 13.3261 16.4732 14.5979 15.5355 15.5355C14.5979 16.4732 13.3261 17 12 17C10.6739 17 9.40215 16.4732 8.46447 15.5355C7.52678 14.5979 7 13.3261 7 12C7 10.6739 7.52678 9.40215 8.46447 8.46447C9.40215 7.52678 10.6739 7 12 7ZM12 9C11.2044 9 10.4413 9.31607 9.87868 9.87868C9.31607 10.4413 9 11.2044 9 12C9 12.7956 9.31607 13.5587 9.87868 14.1213C10.4413 14.6839 11.2044 15 12 15C12.7956 15 13.5587 14.6839 14.1213 14.1213C14.6839 13.5587 15 12.7956 15 12C15 11.2044 14.6839 10.4413 14.1213 9.87868C13.5587 9.31607 12.7956 9 12 9Z" fill="currentColor"/>
      </symbol>
    <symbol id="tiger" viewBox="0 0 24 24" xmlns="http://www.w3.org/2000/svg">
      <path d="M19.9443 1.20313C19.9769 1.20453 20.0021 1.21414 20.0193 1.23299C21.3391 2.67936 21.1326 3.97691 20.8799 5.33159C20.7688 5.55828 20.6698 5.74414 20.5616 5.89738C20.3238 6.23431 20.0298 6.48224 19.3113 6.84149L19.6886 7.59608C20.4701 7.20533 20.9261 6.84388 21.2508 6.38389C21.283 6.33806 21.3141 6.29149 21.3441 6.2442C22.4448 7.63349 23.1084 9.31991 23.2267 11.1984C22.7358 10.6792 22.2741 10.5242 21.6861 10.4079C21.5148 9.59356 21.1672 8.77002 20.5874 7.997L19.9125 8.50306C20.9599 9.89961 21.129 11.4538 20.8676 12.761C20.6061 14.0683 19.86 15.0984 19.3113 15.3727C18.4858 15.7855 17.8892 16.3893 17.4204 16.858C17.1861 17.0924 16.982 17.2933 16.8179 17.4189C16.8097 17.4251 16.8023 17.4301 16.7944 17.436C16.7544 17.2083 16.6961 16.9726 16.6223 16.7293C16.3733 15.9074 15.9369 14.9917 15.3617 14.033L14.6382 14.4671C15.188 15.3833 15.5954 16.2489 15.8151 16.9739C16.0348 17.6989 16.0489 18.2732 15.9208 18.5934C15.7927 18.9136 15.5824 19.082 14.9859 19.1019C14.4665 19.1192 13.6845 18.9616 12.6449 18.5579C14.8999 17.7591 14.3385 16.3576 14.2499 15C13.4999 16.5 12.7499 16.5 11.9999 16.5C11.2499 16.5 10.4999 16.5 9.74994 15C9.66135 16.3576 9.09998 17.759 11.3549 18.5579C10.3154 18.9616 9.53338 19.1192 9.01396 19.1019C8.41752 19.082 8.20719 18.9136 8.07908 18.5934C7.95102 18.2732 7.96518 17.6989 8.18483 16.9739C8.40454 16.2489 8.81193 15.3833 9.36168 14.4671L8.63821 14.033C8.06296 14.9917 7.6266 15.9074 7.37755 16.7293C7.30382 16.9726 7.24546 17.2084 7.20552 17.436C7.1976 17.4302 7.19019 17.4251 7.18199 17.4189C7.01788 17.2933 6.81383 17.0924 6.57946 16.858C6.11071 16.3893 5.51408 15.7855 4.68862 15.3727C4.13985 15.0984 3.39379 14.0683 3.13237 12.761C2.8709 11.4538 3.04002 9.89961 4.0874 8.50306L3.41249 7.997C2.83265 8.77002 2.48507 9.59356 2.31374 10.4079C1.72579 10.5242 1.26412 10.6792 0.773193 11.1984C0.891459 9.31991 1.55507 7.63353 2.65579 6.2442C2.68578 6.29149 2.71689 6.33806 2.74907 6.38389C3.07377 6.84388 3.52982 7.20533 4.31127 7.59608L4.68862 6.84149C3.97007 6.48224 3.67612 6.23431 3.43832 5.89742C3.33013 5.74414 3.23113 5.55828 3.11999 5.33164C2.86733 3.97695 2.6608 2.67936 3.98062 1.23299C3.99782 1.21414 4.02304 1.20453 4.05562 1.20313C4.48204 1.18466 6.17516 2.56016 7.76113 2.87159C8.68227 2.58495 9.67583 2.39253 10.7298 2.30469L10.9383 3.03444C10.2858 3.12233 9.60974 3.28963 8.86654 3.53736L9.13335 4.3377C9.89024 4.08542 10.5454 3.92005 11.1689 3.84158L11.3781 4.57377C11.0963 4.598 10.8223 4.63883 10.5674 4.69878C10.1277 4.80224 9.7386 4.94609 9.45168 5.23302L10.0482 5.82955C10.1363 5.74147 10.4034 5.60408 10.7606 5.52003C11.0131 5.46059 11.3082 5.42094 11.615 5.40256L11.9999 6.75003L12.3849 5.40256C12.6917 5.42094 12.9868 5.46059 13.2393 5.52003C13.5965 5.60408 13.8636 5.74147 13.9517 5.82955L14.5482 5.23302C14.2613 4.94609 13.8722 4.80224 13.4325 4.69878C13.1776 4.63883 12.9036 4.598 12.6218 4.57372L12.831 3.84158C13.4545 3.92 14.1096 4.08542 14.8665 4.3377L15.1334 3.53736C14.3901 3.28963 13.7141 3.12233 13.0616 3.03444L13.2701 2.30469C14.3241 2.39249 15.3176 2.585 16.2388 2.87159C17.8247 2.5602 19.5179 1.18466 19.9442 1.20313H19.9443ZM15.5933 6.35839C13.7183 7.10839 12.8249 7.45325 11.9999 7.45325C11.1749 7.45325 10.2816 7.10839 8.4066 6.35839L8.09329 7.14167C9.96829 7.89167 10.9499 8.29681 11.9999 8.29681C13.0499 8.29681 14.0316 7.89167 15.9066 7.14167L15.5933 6.35839ZM17.6226 6.56136C16.9481 7.91042 15.5613 8.62274 14.0613 9.37274L14.417 10.0839C14.1911 10.3896 13.9986 10.754 13.8576 11.1846C13.8576 11.1846 13.4999 12.75 13.4588 13.4307L14.2911 13.5694C14.2499 12.75 14.2499 12 14.6496 11.4687C14.8921 11.7979 15.2781 12.014 15.7134 12.014C16.4487 12.014 17.0431 11.3976 17.0431 10.6611C17.0431 10.2343 16.8433 9.84819 16.5323 9.59863C17.1097 9.42636 17.6729 9.42181 17.9999 9.42181V8.57825C17.7788 8.57825 17.4043 8.57675 16.9626 8.64214C17.5306 8.18835 18.0255 7.64206 18.3772 6.9387L17.6226 6.56136ZM6.37724 6.56136L5.62265 6.9387C5.97435 7.64206 6.4693 8.18835 7.03724 8.64214C6.59563 8.57675 6.22105 8.57825 5.99994 8.57825V9.42181C6.32699 9.42181 6.89019 9.42636 7.46755 9.59863C7.15663 9.84819 6.95676 10.2343 6.95676 10.6611C6.95676 11.3976 7.55123 12.014 8.28646 12.014C8.72183 12.014 9.10776 11.7979 9.35024 11.4687C9.74994 12 9.74994 12.75 9.70883 13.5694L10.5411 13.4308C10.4999 12.7501 10.1423 11.1847 10.1423 11.1847C10.0012 10.7541 9.80877 10.3897 9.58293 10.084L9.93862 9.37278C8.43862 8.62278 7.05177 7.91042 6.37724 6.56136ZM19.1501 8.86667L18.3498 9.13339C18.5061 9.60256 18.4693 10.002 18.3186 10.4137C18.168 10.8254 17.8907 11.2391 17.5732 11.6473C17.2557 12.0555 16.9011 12.4557 16.6109 12.8721C16.3207 13.2884 16.0782 13.7344 16.0782 14.25H16.9217C16.9217 14.0157 17.0542 13.7116 17.3031 13.3545C17.5519 12.9975 17.9004 12.6008 18.2391 12.1653C18.5779 11.7298 18.91 11.2528 19.1109 10.7036C19.3119 10.1544 19.3687 9.52255 19.1501 8.86667ZM4.84977 8.86667C4.63115 9.5225 4.68805 10.1543 4.88896 10.7036C5.08987 11.2528 5.42193 11.7298 5.76069 12.1653C6.09946 12.6008 6.44798 12.9975 6.69683 13.3545C6.94574 13.7116 7.07816 14.0157 7.07816 14.25H7.92173C7.92173 13.7344 7.67919 13.2884 7.38899 12.8721C7.09879 12.4557 6.74418 12.0555 6.42665 11.6473C6.10916 11.2391 5.8319 10.8254 5.68124 10.4137C5.53063 10.0019 5.49374 9.60256 5.65012 9.13344L4.84977 8.86667ZM15.7134 10.1517C15.981 10.1517 16.1995 10.3691 16.1995 10.6611C16.1995 10.9531 15.981 11.1704 15.7134 11.1704C15.4458 11.1704 15.2274 10.9531 15.2274 10.6611C15.2274 10.3691 15.4458 10.1517 15.7134 10.1517ZM8.28646 10.1517C8.55407 10.1517 8.77255 10.3691 8.77255 10.6611C8.77255 10.9531 8.55407 11.1704 8.28646 11.1704C8.0189 11.1704 7.80041 10.9531 7.80041 10.6611C7.80041 10.3691 8.0188 10.1517 8.28646 10.1517ZM21.7426 10.7158C23.4144 13.5573 23.2214 16.5286 22.4999 17.25C22.0412 16.529 21.5566 15.9462 20.9999 15.75C21.4418 17.4403 20.9999 18.75 20.2499 19.5C20.2499 18.75 20.0891 18.3898 19.4999 18C19.6543 19.8718 18.6453 20.6622 17.9999 21C17.7174 20.4539 17.1806 19.8547 16.4402 19.3363C16.5519 19.2091 16.6412 19.0638 16.7041 18.9067C16.7725 18.7357 16.815 18.5551 16.8367 18.3664C17.0193 18.306 17.1817 18.2028 17.3304 18.089C17.5648 17.9098 17.7826 17.6889 18.017 17.4545C18.4857 16.9858 19.0141 16.4645 19.6886 16.1273C20.6399 15.6517 21.3938 14.4318 21.6949 12.9266C21.8324 12.2386 21.8636 11.4847 21.7426 10.7158ZM2.25726 10.7158C2.13632 11.4846 2.16744 12.2386 2.30507 12.9266C2.6061 14.4318 3.36004 15.6517 4.31127 16.1273C4.9858 16.4646 5.51418 16.9858 5.98293 17.4545C6.2173 17.6889 6.43513 17.9098 6.66946 18.089C6.81819 18.2028 6.98057 18.306 7.16319 18.3664C7.18485 18.5552 7.22741 18.7357 7.2958 18.9067C7.35872 19.0638 7.44797 19.2091 7.55971 19.3363C6.81932 19.8547 6.28251 20.4539 5.99994 21C5.35457 20.6622 4.34558 19.8718 4.49994 18C3.91082 18.3898 3.74994 18.75 3.74994 19.5C2.99994 18.75 2.5581 17.4403 2.99994 15.75C2.44326 15.9462 1.95871 16.529 1.49994 17.25C0.778537 16.5286 0.585506 13.5573 2.25726 10.7158ZM19.9217 12H19.0782C19.0782 12.5391 18.6043 13.2405 18.0547 13.8817C17.7799 14.2023 17.4974 14.5073 17.2694 14.7986C17.0414 15.0899 16.8282 15.3516 16.8282 15.75H17.6717C17.6717 15.7735 17.7398 15.5664 17.9337 15.3186C18.1275 15.0709 18.4075 14.7665 18.6952 14.4308C19.2706 13.7595 19.9217 12.9609 19.9217 12ZM4.92172 12H4.07816C4.07816 12.961 4.72926 13.7595 5.30469 14.4308C5.59241 14.7665 5.87235 15.0709 6.06622 15.3186C6.2601 15.5664 6.32816 15.7734 6.32816 15.75H7.17173C7.17173 15.3516 6.95854 15.0899 6.73054 14.7986C6.50254 14.5073 6.21997 14.2023 5.94519 13.8817C5.39563 13.2405 4.92172 12.5391 4.92172 12ZM14.3776 19.9128C14.6037 19.9409 14.8154 19.9517 15.014 19.9451C15.0984 19.9421 15.1826 19.9348 15.2663 19.9233C15.1479 20.3404 14.9556 20.7373 14.6678 21.0826C14.1164 21.7443 13.2187 22.1718 11.9999 22.1718C10.7812 22.1718 9.88349 21.7443 9.3321 21.0826C9.04429 20.7373 8.85201 20.3404 8.7336 19.9233C8.81572 19.9343 8.89954 19.9422 8.98593 19.9451C9.18449 19.9517 9.39622 19.9409 9.6223 19.9127C9.70949 20.1455 9.82729 20.3589 9.98029 20.5424C10.3664 21.0058 10.9687 21.3283 11.9999 21.3283C13.0312 21.3283 13.6335 21.0058 14.0196 20.5424C14.1726 20.3589 14.2904 20.1454 14.3776 19.9128Z" fill="currentColor"/>
    </symbol>
        
  </defs>
</svg>